<svg xmlns="http://www.w3.org/2000/svg" width="612.0" height="792.0" viewBox="0 0 612.0 792.0">
<rect x="0" y="0" width="612.0" height="792.0" fill="white" />
<rect x="139.5800018310547" y="394.3700256347656" width="386.9500274658203" height="13.79998779296875" fill="white" stroke="black" />
<rect x="87.74400329589844" y="471.4300231933594" width="232.96998596191406" height="56.519989013671875" fill="white" stroke="black" />
<rect x="93.38400268554688" y="477.7900085449219" width="221.66000366210938" height="43.799957275390625" fill="white" stroke="black" />
<rect x="321.42999267578125" y="471.4300231933594" width="232.94000244140625" height="56.519989013671875" fill="white" stroke="black" />
<rect x="327.07000732421875" y="477.7900085449219" width="221.65997314453125" height="43.799957275390625" fill="white" stroke="black" />
<rect x="87.02400207519531" y="470.5899963378906" width="0.720001220703125" height="6.720001220703125" fill="white" stroke="black" />
<rect x="87.02400207519531" y="470.5899963378906" width="0.720001220703125" height="0.720001220703125" fill="white" stroke="black" />
<rect x="87.74400329589844" y="470.5899963378906" width="232.96998596191406" height="0.720001220703125" fill="white" stroke="black" />
<rect x="87.74400329589844" y="471.30999755859375" width="232.96998596191406" height="6.0" fill="white" stroke="black" />
<rect x="320.7099914550781" y="471.30999755859375" width="0.720001220703125" height="6.0" fill="white" stroke="black" />
<rect x="320.7099914550781" y="470.5899963378906" width="0.720001220703125" height="0.720001220703125" fill="white" stroke="black" />
<rect x="321.42999267578125" y="470.5899963378906" width="232.94000244140625" height="0.720001220703125" fill="white" stroke="black" />
<rect x="321.42999267578125" y="471.30999755859375" width="232.94000244140625" height="6.0" fill="white" stroke="black" />
<rect x="554.3800048828125" y="470.5899963378906" width="0.72003173828125" height="6.720001220703125" fill="white" stroke="black" />
<rect x="554.3800048828125" y="470.5899963378906" width="0.72003173828125" height="0.720001220703125" fill="white" stroke="black" />
<rect x="87.38400268554688" y="521.9500122070312" width="233.69000244140625" height="6.0" fill="white" stroke="black" />
<rect x="87.02400207519531" y="477.30999755859375" width="0.720001220703125" height="50.6400146484375" fill="white" stroke="black" />
<rect x="321.07000732421875" y="521.9500122070312" width="233.65997314453125" height="6.0" fill="white" stroke="black" />
<rect x="320.7099914550781" y="477.30999755859375" width="0.720001220703125" height="50.6400146484375" fill="white" stroke="black" />
<rect x="554.3800048828125" y="477.30999755859375" width="0.72003173828125" height="50.6400146484375" fill="white" stroke="black" />
<rect x="87.02400207519531" y="527.9500122070312" width="0.720001220703125" height="6.72003173828125" fill="white" stroke="black" />
<rect x="87.74400329589844" y="527.9500732421875" width="232.96998596191406" height="0.719970703125" fill="white" stroke="black" />
<rect x="320.7099914550781" y="527.9500122070312" width="0.720001220703125" height="6.72003173828125" fill="white" stroke="black" />
<rect x="321.42999267578125" y="527.9500732421875" width="232.94000244140625" height="0.719970703125" fill="white" stroke="black" />
<rect x="554.3800048828125" y="527.9500122070312" width="0.72003173828125" height="6.72003173828125" fill="white" stroke="black" />
<rect x="87.02400207519531" y="534.676025390625" width="0.720001220703125" height="49.823974609375" fill="white" stroke="black" />
<rect x="320.7099914550781" y="534.676025390625" width="0.720001220703125" height="49.823974609375" fill="white" stroke="black" />
<rect x="554.3800048828125" y="534.676025390625" width="0.72003173828125" height="49.823974609375" fill="white" stroke="black" />
<rect x="87.02400207519531" y="584.5" width="0.720001220703125" height="6.719970703125" fill="white" stroke="black" />
<rect x="87.74400329589844" y="584.5" width="232.96998596191406" height="0.719970703125" fill="white" stroke="black" />
<rect x="320.7099914550781" y="584.5" width="0.720001220703125" height="6.719970703125" fill="white" stroke="black" />
<rect x="321.42999267578125" y="584.5" width="232.94000244140625" height="0.719970703125" fill="white" stroke="black" />
<rect x="554.3800048828125" y="584.5" width="0.72003173828125" height="6.719970703125" fill="white" stroke="black" />
<rect x="87.02400207519531" y="591.219970703125" width="0.720001220703125" height="49.9200439453125" fill="white" stroke="black" />
<rect x="87.02400207519531" y="641.1399536132812" width="0.720001220703125" height="0.72003173828125" fill="white" stroke="black" />
<rect x="87.02400207519531" y="641.1399536132812" width="0.720001220703125" height="0.72003173828125" fill="white" stroke="black" />
<rect x="87.74400329589844" y="641.1399536132812" width="232.96998596191406" height="0.72003173828125" fill="white" stroke="black" />
<rect x="320.7099914550781" y="591.219970703125" width="0.720001220703125" height="49.9200439453125" fill="white" stroke="black" />
<rect x="320.7099914550781" y="641.1399536132812" width="0.720001220703125" height="0.72003173828125" fill="white" stroke="black" />
<rect x="321.42999267578125" y="641.1399536132812" width="232.94000244140625" height="0.72003173828125" fill="white" stroke="black" />
<rect x="554.3800048828125" y="591.219970703125" width="0.72003173828125" height="49.9200439453125" fill="white" stroke="black" />
<rect x="554.3800048828125" y="641.1399536132812" width="0.72003173828125" height="0.72003173828125" fill="white" stroke="black" />
<rect x="554.3800048828125" y="641.1399536132812" width="0.72003173828125" height="0.72003173828125" fill="white" stroke="black" />
</svg>